<svg version="1.1" id="Layer_1" xmlns="http://www.w3.org/2000/svg" xmlns:xlink="http://www.w3.org/1999/xlink" x="0px" y="0px"
	 width="100%" viewBox="0 0 1024 1024" enable-background="new 0 0 1024 1024" xml:space="preserve">
<path fill="#000000" opacity="1.000000" stroke="none" 
	d="
M802.962891,593.000000 
	C802.983337,552.523499 803.071289,512.546692 802.928955,472.570770 
	C802.912720,468.001831 804.195068,466.360291 808.840393,466.500824 
	C816.154297,466.722107 823.487854,466.413361 830.809448,466.202332 
	C833.845093,466.114868 835.651978,466.964691 835.365784,470.398560 
	C835.229614,472.031830 835.342407,473.685852 835.342407,476.287994 
	C838.182983,474.155365 840.251953,472.384430 842.523865,470.930695 
	C860.967285,459.129089 888.453857,461.776581 905.309204,476.836975 
	C921.618958,491.409790 926.979492,509.773468 925.523438,531.164124 
	C923.964111,554.070679 907.492188,577.547729 883.793701,583.718750 
	C866.128540,588.318787 849.357422,586.204773 836.178040,571.436646 
	C834.666443,572.296631 835.432983,573.774719 835.426514,574.913391 
	C835.346924,588.904846 835.228210,602.898376 835.410461,616.887634 
	C835.464111,621.006409 834.117981,622.494812 829.979797,622.349792 
	C822.826050,622.099060 815.648315,622.061829 808.497925,622.355957 
	C803.981934,622.541809 802.735657,620.722900 802.879883,616.484253 
	C803.140381,608.830811 802.959045,601.162231 802.962891,593.000000 
M865.656860,555.388733 
	C866.812927,555.347412 867.995728,555.451050 869.120972,555.242920 
	C884.811646,552.341614 894.731018,538.155029 893.575806,520.327454 
	C892.693665,506.713623 882.747131,495.068451 870.421204,493.218445 
	C855.005615,490.904663 841.869446,497.770569 836.820557,511.216827 
	C828.059509,534.549377 843.854004,557.487427 865.656860,555.388733 
z"/>
<path fill="#000000" opacity="1.000000" stroke="none" 
	d="
M772.791382,559.797974 
	C756.859070,574.708374 737.960327,580.985657 716.996216,578.670654 
	C694.709045,576.209534 676.294678,566.371521 665.985962,545.069031 
	C661.100342,534.973083 660.181580,523.958130 659.096985,513.029358 
	C656.237549,484.215454 653.536987,455.385712 650.634827,426.576233 
	C649.799133,418.279877 649.314941,418.166168 641.083679,418.063354 
	C632.437378,417.955353 623.754395,418.929962 615.150330,417.515625 
	C608.367737,416.400696 605.858704,411.602600 608.252686,405.087433 
	C610.279785,399.570679 614.192444,395.788940 619.825623,395.317810 
	C629.601807,394.500275 639.542236,394.153351 649.253723,395.496857 
	C664.314087,397.580353 670.933350,405.468628 673.017090,421.288483 
	C675.382996,439.249451 678.219055,457.148926 680.539185,475.115356 
	C682.262451,488.459961 684.310547,501.844055 684.713013,515.255615 
	C685.144348,529.628845 696.667236,546.251465 716.325928,549.528809 
	C727.052673,551.317078 737.258362,549.521301 746.161621,542.716064 
	C754.216919,536.558960 758.543213,528.363586 758.586731,518.259827 
	C758.705811,490.604004 758.599304,462.947235 758.586731,435.290863 
	C758.583313,427.737305 758.590942,427.743347 766.372986,427.734894 
	C772.870544,427.727844 779.369446,427.779877 785.864990,427.656494 
	C789.131958,427.594421 790.708252,428.603821 790.684509,432.230042 
	C790.499451,460.550079 790.627625,488.872986 790.305420,517.190979 
	C790.120361,533.453003 784.751709,547.856384 772.791382,559.797974 
z"/>
<path fill="#000000" opacity="1.000000" stroke="none" 
	d="
M449.745178,535.296265 
	C447.009918,510.224487 453.745300,489.102142 474.954071,474.809967 
	C502.431061,456.293854 546.985291,460.944916 564.915771,494.832855 
	C571.474060,507.227814 573.586609,520.541443 572.813171,534.463684 
	C572.572693,538.793518 570.082520,539.062012 566.777100,539.056580 
	C541.110657,539.014343 515.444031,539.030151 489.777527,539.065369 
	C487.992371,539.067871 486.115601,538.615906 483.924622,539.969055 
	C485.644531,545.195679 489.381195,548.859924 493.696960,551.931824 
	C506.705627,561.191223 525.560120,559.798950 536.840881,548.484436 
	C539.995361,545.320557 541.852173,545.466492 544.920410,548.443115 
	C549.814697,553.191284 555.067383,557.602295 560.430176,561.823303 
	C563.755371,564.440491 563.346863,566.370789 560.538086,568.949219 
	C551.454285,577.288086 540.771423,582.511108 528.821228,585.021301 
	C511.658539,588.626343 495.019684,587.162720 479.461823,578.507263 
	C463.296814,569.513977 453.854584,555.666992 450.521271,537.549133 
	C450.402588,536.904053 450.096069,536.293518 449.745178,535.296265 
M487.686829,505.223511 
	C486.429230,507.641602 484.239685,509.684021 484.411621,512.632385 
	C486.088593,513.933289 487.799652,513.535889 489.419769,513.542114 
	C502.382355,513.592041 515.346130,513.712708 528.306946,513.573059 
	C531.645508,513.537170 536.615479,515.425232 537.965393,512.012939 
	C539.530273,508.057068 535.640381,504.495789 532.890137,501.415619 
	C531.904480,500.311768 530.681274,499.407715 529.510315,498.483673 
	C519.198669,490.346466 498.067963,490.283997 487.686829,505.223511 
z"/>
<path fill="#000000" opacity="1.000000" stroke="none" 
	d="
M288.870483,552.940430 
	C297.329315,546.815491 297.342896,546.798889 305.074677,553.118713 
	C308.555237,555.963623 311.787659,559.151245 315.463867,561.706909 
	C319.287781,564.365112 318.608917,566.437256 315.592377,569.069031 
	C298.882782,583.646790 279.503845,589.568176 257.708923,585.802185 
	C234.576080,581.805054 217.628540,568.850830 210.095169,546.478638 
	C196.233139,505.311859 220.489716,465.590942 265.384766,464.101257 
	C303.669006,462.830963 330.193726,493.018646 326.258728,534.247986 
	C325.892548,538.084839 323.986053,539.194580 320.345734,539.176208 
	C300.360748,539.075317 280.371155,539.364014 260.391602,539.023865 
	C254.580521,538.924866 251.897812,542.956299 248.260986,545.850098 
	C246.615234,547.159607 248.120285,548.564514 249.120819,549.644714 
	C253.262558,554.115906 258.613586,556.640625 264.438171,557.400879 
	C272.802917,558.492798 281.091339,557.773376 288.870483,552.940430 
M250.087204,534.519531 
	C254.627960,529.120117 260.415924,527.363647 267.381073,527.819031 
	C273.845764,528.241760 280.368927,527.686340 286.853607,527.917725 
	C291.098785,528.069214 293.028595,526.700378 292.713562,522.230286 
	C292.433289,518.253418 292.693390,514.241089 292.626709,510.245941 
	C292.517120,503.677704 289.122955,499.704834 282.678314,499.523407 
	C272.863068,499.247131 263.032135,499.348694 253.211639,499.514221 
	C248.623474,499.591522 244.581604,501.839905 244.047806,506.479462 
	C242.834137,517.028198 242.777832,527.669678 244.203369,538.251648 
	C244.229492,538.445496 244.712921,538.577698 245.308304,538.932678 
	C246.681244,537.665161 248.126785,536.330566 250.087204,534.519531 
z"/>
<path fill="#000000" opacity="1.000000" stroke="none" 
	d="
M442.937897,489.851318 
	C430.761047,519.997620 418.725952,549.784485 406.746765,579.593750 
	C405.667236,582.280090 404.002747,583.374451 401.060699,583.327271 
	C391.568420,583.175110 382.070557,583.134888 372.579102,583.298096 
	C369.369873,583.353271 367.845276,582.081360 366.693787,579.195435 
	C353.434998,545.964905 340.087555,512.769592 326.705994,479.588226 
	C325.178925,475.801666 323.300690,472.156677 321.199066,467.610565 
	C327.105713,467.610565 332.355652,467.609863 337.605560,467.610748 
	C341.769836,467.611450 345.934387,467.646454 350.098297,467.609131 
	C358.806580,467.531036 358.805969,467.515747 361.927490,475.845001 
	C369.754578,496.730011 377.579681,517.615784 385.416504,538.497131 
	C385.818726,539.568787 386.322601,540.602356 387.023682,542.216858 
	C389.534760,538.913574 390.359589,535.398315 391.564697,532.116760 
	C398.851654,512.274536 406.115051,492.423004 413.219727,472.515106 
	C414.512665,468.892212 416.182556,467.266083 420.367401,467.463196 
	C429.009705,467.870392 437.684906,467.556549 446.346283,467.601013 
	C447.947357,467.609253 449.676605,466.990540 451.558777,468.583771 
	C449.702301,475.809814 445.497528,482.313446 442.937897,489.851318 
z"/>
<path fill="#000000" opacity="1.000000" stroke="none" 
	d="
M200.805176,571.293030 
	C201.001953,582.328247 201.001953,582.325195 190.449295,582.323303 
	C166.129562,582.318970 141.808395,582.177124 117.491264,582.427368 
	C112.270935,582.481140 110.993263,580.548035 111.003677,575.757019 
	C111.106148,528.616943 111.038872,481.476501 111.051994,434.336182 
	C111.053818,427.783234 111.213104,427.705261 117.820137,427.702820 
	C125.149307,427.700104 132.490585,427.951538 139.802902,427.599945 
	C143.895050,427.403168 145.002213,428.879303 144.991150,432.705444 
	C144.894806,466.019653 144.927887,499.334259 144.916901,532.648743 
	C144.915649,536.479553 145.118591,540.330933 144.791565,544.135315 
	C144.479736,547.762756 145.896790,548.721924 149.321320,548.691101 
	C164.644806,548.553345 179.972382,548.765137 195.293350,548.524231 
	C199.490433,548.458252 200.799957,549.586243 200.536072,553.863647 
	C200.188736,559.493408 200.659134,565.173584 200.805176,571.293030 
z"/>
<path fill="#000000" opacity="1.000000" stroke="none" 
	d="
M593.744141,499.000000 
	C593.740356,477.027557 593.887817,455.553284 593.622192,434.084076 
	C593.558411,428.926514 595.268127,427.384186 600.225159,427.640961 
	C607.031311,427.993530 613.874207,427.871796 620.692383,427.661682 
	C624.472595,427.545197 626.076294,428.734314 626.070129,432.740692 
	C625.995544,480.845306 626.006104,528.950195 626.104309,577.054749 
	C626.112854,581.234192 624.479675,582.565247 620.456970,582.437683 
	C613.306763,582.210938 606.136108,582.175903 598.989563,582.456543 
	C594.710632,582.624573 593.640625,580.886658 593.661438,576.900391 
	C593.796082,551.100830 593.738525,525.300232 593.744141,499.000000 
z"/>
<path fill="#000000" opacity="1.000000" stroke="none" 
	d="
M773.885010,599.594055 
	C774.715393,610.941711 767.848511,618.887878 757.695190,618.860046 
	C748.576782,618.835022 740.839966,610.310852 741.532593,601.052673 
	C742.134460,593.008057 748.513550,586.804199 756.896240,586.111084 
	C764.884827,585.450500 771.452820,590.540466 773.885010,599.594055 
z"/>
<path fill="#000000" opacity="1.000000" stroke="none" 
	d="
M688.258789,617.552979 
	C678.612854,616.042603 672.939941,610.476685 672.623840,602.560547 
	C672.290527,594.212708 676.958618,587.481445 684.392456,585.590576 
	C693.646667,583.236816 703.117432,589.162354 704.795715,598.356201 
	C706.557190,608.005554 699.367859,616.567383 688.258789,617.552979 
z"/>
<path fill="#000000" opacity="1.000000" stroke="none" 
	d="
M256.591003,521.442261 
	C252.442047,517.695374 251.992188,514.747009 254.911926,512.083130 
	C257.826721,509.423859 260.436340,510.481171 262.655365,513.048645 
	C264.077271,514.693909 264.199646,516.740723 263.217346,518.674805 
	C261.919067,521.231140 259.699493,522.042786 256.591003,521.442261 
z"/>
<path fill="#000000" opacity="1.000000" stroke="none" 
	d="
M272.982330,513.085693 
	C275.529114,510.238739 278.079559,509.985016 280.669434,512.226196 
	C282.856812,514.119141 283.118042,516.580444 281.799286,519.024902 
	C280.396851,521.624390 277.877289,522.310425 275.350067,521.214355 
	C271.846283,519.694763 270.966614,516.904358 272.982330,513.085693 
z"/>
</svg>