<svg width="1024" height="1024" viewBox="0 0 1024 1024" fill="none" xmlns="http://www.w3.org/2000/svg">
<path d="M802.963 593C802.984 552.524 803.072 512.547 802.929 472.571C802.913 468.002 804.195 466.36 808.841 466.501C816.155 466.722 823.488 466.413 830.81 466.202C833.845 466.115 835.652 466.965 835.366 470.399C835.23 472.032 835.343 473.686 835.343 476.288C838.183 474.155 840.252 472.384 842.524 470.931C860.968 459.129 888.454 461.777 905.309 476.837C921.619 491.41 926.98 509.773 925.524 531.164C923.964 554.071 907.492 577.548 883.794 583.719C866.129 588.319 849.358 586.205 836.178 571.437C834.667 572.297 835.433 573.775 835.427 574.913C835.347 588.905 835.228 602.898 835.411 616.888C835.464 621.006 834.118 622.495 829.98 622.35C822.826 622.099 815.649 622.062 808.498 622.356C803.982 622.542 802.736 620.723 802.88 616.484C803.141 608.831 802.959 601.162 802.963 593ZM865.657 555.389C866.813 555.347 867.996 555.451 869.121 555.243C884.812 552.342 894.731 538.155 893.576 520.327C892.694 506.714 882.747 495.068 870.421 493.218C855.006 490.905 841.87 497.771 836.821 511.217C828.06 534.549 843.854 557.487 865.657 555.389Z" fill="white"/>
<path d="M772.791 559.798C756.859 574.708 737.96 580.986 716.996 578.671C694.709 576.21 676.295 566.371 665.986 545.069C661.1 534.973 660.182 523.958 659.097 513.029C656.238 484.215 653.537 455.386 650.635 426.576C649.799 418.28 649.315 418.166 641.084 418.063C632.437 417.955 623.754 418.93 615.15 417.516C608.368 416.401 605.859 411.603 608.253 405.087C610.28 399.571 614.193 395.789 619.826 395.318C629.602 394.5 639.542 394.153 649.254 395.497C664.314 397.58 670.933 405.469 673.017 421.288C675.383 439.249 678.219 457.149 680.539 475.115C682.263 488.46 684.311 501.844 684.713 515.256C685.144 529.629 696.667 546.251 716.326 549.529C727.053 551.317 737.258 549.521 746.162 542.716C754.217 536.559 758.543 528.364 758.587 518.26C758.706 490.604 758.599 462.947 758.587 435.291C758.583 427.737 758.591 427.743 766.373 427.735C772.871 427.728 779.37 427.78 785.865 427.656C789.132 427.594 790.708 428.604 790.685 432.23C790.5 460.55 790.628 488.873 790.305 517.191C790.12 533.453 784.752 547.856 772.791 559.798Z" fill="white"/>
<path d="M449.745 535.296C447.01 510.225 453.745 489.102 474.954 474.81C502.431 456.294 546.985 460.945 564.916 494.833C571.474 507.228 573.587 520.541 572.813 534.464C572.573 538.794 570.083 539.062 566.777 539.057C541.111 539.014 515.444 539.03 489.778 539.065C487.992 539.068 486.116 538.616 483.925 539.969C485.645 545.196 489.381 548.86 493.697 551.932C506.706 561.191 525.56 559.799 536.841 548.484C539.995 545.321 541.852 545.467 544.92 548.443C549.815 553.191 555.067 557.602 560.43 561.823C563.755 564.441 563.347 566.371 560.538 568.949C551.454 577.288 540.771 582.511 528.821 585.021C511.659 588.626 495.02 587.163 479.462 578.507C463.297 569.514 453.855 555.667 450.521 537.549C450.403 536.904 450.096 536.294 449.745 535.296ZM487.687 505.224C486.429 507.642 484.24 509.684 484.412 512.632C486.089 513.933 487.8 513.536 489.42 513.542C502.382 513.592 515.346 513.713 528.307 513.573C531.646 513.537 536.616 515.425 537.965 512.013C539.53 508.057 535.64 504.496 532.89 501.416C531.905 500.312 530.681 499.408 529.51 498.484C519.199 490.347 498.068 490.284 487.687 505.224Z" fill="white"/>
<path d="M288.87 552.94C297.329 546.815 297.343 546.799 305.075 553.119C308.555 555.964 311.788 559.151 315.464 561.707C319.288 564.365 318.609 566.437 315.592 569.069C298.883 583.647 279.504 589.568 257.709 585.802C234.576 581.805 217.629 568.851 210.095 546.479C196.233 505.312 220.49 465.591 265.385 464.101C303.669 462.831 330.194 493.019 326.259 534.248C325.893 538.085 323.986 539.195 320.346 539.176C300.361 539.075 280.371 539.364 260.392 539.024C254.581 538.925 251.898 542.956 248.261 545.85C246.615 547.16 248.12 548.565 249.121 549.645C253.263 554.116 258.614 556.641 264.438 557.401C272.803 558.493 281.091 557.773 288.87 552.94ZM250.087 534.52C254.628 529.12 260.416 527.364 267.381 527.819C273.846 528.242 280.369 527.686 286.854 527.918C291.099 528.069 293.029 526.7 292.714 522.23C292.433 518.253 292.693 514.241 292.627 510.246C292.517 503.678 289.123 499.705 282.678 499.523C272.863 499.247 263.032 499.349 253.212 499.514C248.623 499.592 244.582 501.84 244.048 506.479C242.834 517.028 242.778 527.67 244.203 538.252C244.229 538.446 244.713 538.578 245.308 538.933C246.681 537.665 248.127 536.331 250.087 534.52Z" fill="white"/>
<path d="M442.938 489.851C430.761 519.998 418.726 549.785 406.747 579.594C405.667 582.28 404.003 583.374 401.061 583.327C391.568 583.175 382.07 583.135 372.579 583.298C369.37 583.353 367.845 582.081 366.694 579.195C353.435 545.965 340.087 512.77 326.706 479.588C325.179 475.802 323.301 472.157 321.199 467.611C327.106 467.611 332.356 467.61 337.605 467.611C341.77 467.611 345.934 467.646 350.098 467.609C358.806 467.531 358.806 467.516 361.927 475.845C369.754 496.73 377.58 517.616 385.416 538.497C385.819 539.569 386.323 540.602 387.024 542.217C389.535 538.914 390.359 535.398 391.565 532.117C398.852 512.275 406.115 492.423 413.22 472.515C414.513 468.892 416.182 467.266 420.367 467.463C429.01 467.87 437.685 467.557 446.346 467.601C447.947 467.609 449.677 466.991 451.559 468.584C449.702 475.81 445.497 482.313 442.938 489.851Z" fill="white"/>
<path d="M200.805 571.293C201.002 582.328 201.002 582.325 190.449 582.323C166.13 582.319 141.808 582.177 117.491 582.427C112.271 582.481 110.993 580.548 111.004 575.757C111.106 528.617 111.039 481.477 111.052 434.336C111.054 427.783 111.213 427.705 117.82 427.703C125.149 427.7 132.491 427.952 139.803 427.6C143.895 427.403 145.002 428.879 144.991 432.705C144.895 466.02 144.928 499.334 144.917 532.649C144.916 536.48 145.119 540.331 144.792 544.135C144.48 547.763 145.897 548.722 149.321 548.691C164.645 548.553 179.972 548.765 195.293 548.524C199.49 548.458 200.8 549.586 200.536 553.864C200.189 559.493 200.659 565.174 200.805 571.293Z" fill="white"/>
<path d="M593.744 499C593.74 477.028 593.888 455.553 593.622 434.084C593.559 428.927 595.268 427.384 600.225 427.641C607.031 427.994 613.874 427.872 620.693 427.662C624.473 427.545 626.076 428.734 626.07 432.741C625.996 480.845 626.006 528.95 626.104 577.055C626.113 581.234 624.48 582.565 620.457 582.438C613.307 582.211 606.136 582.176 598.99 582.457C594.711 582.625 593.641 580.887 593.662 576.9C593.796 551.101 593.739 525.3 593.744 499Z" fill="white"/>
<path d="M773.885 599.594C774.715 610.942 767.848 618.888 757.695 618.86C748.577 618.835 740.84 610.311 741.532 601.053C742.134 593.008 748.513 586.804 756.896 586.111C764.885 585.451 771.453 590.54 773.885 599.594Z" fill="white"/>
<path d="M688.259 617.553C678.613 616.043 672.94 610.477 672.624 602.561C672.291 594.213 676.959 587.481 684.393 585.591C693.647 583.237 703.118 589.162 704.796 598.356C706.557 608.006 699.368 616.567 688.259 617.553Z" fill="white"/>
<path d="M256.591 521.442C252.442 517.695 251.992 514.747 254.912 512.083C257.827 509.424 260.436 510.481 262.655 513.049C264.077 514.694 264.2 516.741 263.217 518.675C261.919 521.231 259.7 522.043 256.591 521.442Z" fill="white"/>
<path d="M272.982 513.086C275.529 510.239 278.08 509.985 280.67 512.226C282.857 514.119 283.118 516.58 281.799 519.025C280.397 521.624 277.877 522.31 275.35 521.214C271.846 519.695 270.967 516.904 272.982 513.086Z" fill="white"/>
</svg>
